<svg width="38" height="38" viewBox="0 0 38 38" fill="none" xmlns="http://www.w3.org/2000/svg">
<path d="M35.0467 14.9709C35.7347 14.3002 35.9777 13.3158 35.6808 12.4019C35.3838 11.4881 34.6087 10.8346 33.6578 10.6965L25.3431 9.48826C25.1799 9.46459 25.0388 9.36209 24.9657 9.2141L21.2473 1.67978C20.8221 0.818103 19.961 0.282837 19.0001 0.282837C18.0392 0.282837 17.1781 0.818103 16.7529 1.67978L13.0345 9.21417C12.9614 9.36209 12.8204 9.46459 12.6571 9.48834L4.3425 10.6965C3.39161 10.8346 2.61655 11.4881 2.31952 12.4019C2.0225 13.3158 2.26549 14.3002 2.95365 14.9709L8.97019 20.8356C9.08827 20.9508 9.14223 21.1166 9.11432 21.2793L7.694 29.5603C7.53161 30.5074 7.91354 31.4465 8.69091 32.0113C9.46827 32.5762 10.4797 32.6492 11.3301 32.2022L18.7669 28.2924C18.913 28.2156 19.0873 28.2156 19.2335 28.2924L26.6703 32.2022C27.0402 32.3966 27.4405 32.4927 27.8388 32.4927C28.3561 32.4927 28.8702 32.3306 29.3093 32.0112C30.0867 31.4463 30.4687 30.5072 30.3062 29.5602L28.8859 21.2792C28.8581 21.1166 28.912 20.9507 29.03 20.8355L35.0467 14.9709ZM26.9101 21.6182L28.3305 29.8994C28.378 30.1765 28.2069 30.3345 28.1311 30.3895C28.0552 30.4445 27.852 30.5585 27.6033 30.4276L20.1664 26.5178C19.8013 26.326 19.4008 26.2299 19.0003 26.2299C18.5997 26.2299 18.1991 26.326 17.8341 26.5178L10.3973 30.4275C10.1484 30.5583 9.94528 30.4444 9.8695 30.3894C9.79372 30.3344 9.62257 30.1764 9.67015 29.8992L11.0905 21.6182C11.2299 20.8051 10.9606 19.976 10.3697 19.4001L4.35319 13.5354C4.15184 13.339 4.19741 13.1107 4.22643 13.0216C4.2553 12.9325 4.35275 12.7209 4.63099 12.6805L12.9455 11.4723C13.7618 11.3537 14.4673 10.8413 14.8324 10.1014L18.5509 2.56699C18.6753 2.31487 18.9066 2.28763 19.0003 2.28763C19.0939 2.28763 19.3252 2.3148 19.4497 2.56699V2.56707L23.1682 10.1015C23.5332 10.8413 24.2386 11.3538 25.055 11.4724L33.3696 12.6806C33.6479 12.7209 33.7452 12.9325 33.7742 13.0217C33.8031 13.1108 33.8488 13.3393 33.6473 13.5355L27.6308 19.4002C27.04 19.976 26.7707 20.8051 26.9101 21.6182Z" fill="#C4C4C4"/>
<path d="M30.7104 1.67916C30.2624 1.35378 29.6356 1.45309 29.3103 1.90092L28.2462 3.36541C27.9208 3.81324 28.0201 4.44017 28.468 4.76554C28.646 4.89476 28.8521 4.95703 29.0564 4.95703C29.3664 4.95703 29.672 4.81371 29.8681 4.54385L30.9322 3.07937C31.2575 2.63146 31.1583 2.00453 30.7104 1.67916Z" fill="#C4C4C4"/>
<path d="M9.74941 3.35956L8.68534 1.89508C8.36004 1.44739 7.73318 1.34809 7.2852 1.67331C6.83736 1.99869 6.73806 2.62561 7.06343 3.07345L8.12751 4.53793C8.32367 4.80802 8.6293 4.95126 8.93939 4.95126C9.14371 4.95126 9.34989 4.88899 9.52772 4.7597C9.97556 4.4344 10.0749 3.80747 9.74941 3.35956Z" fill="#C4C4C4"/>
<path d="M3.67767 22.7725C3.5066 22.246 2.94113 21.9578 2.41454 22.1289L0.692891 22.6884C0.166309 22.8595 -0.121734 23.4251 0.0493405 23.9515C0.186942 24.3752 0.57993 24.6445 1.00246 24.6445C1.1051 24.6445 1.20953 24.6285 1.31247 24.5951L3.03412 24.0356C3.56063 23.8645 3.84875 23.299 3.67767 22.7725Z" fill="#C4C4C4"/>
<path d="M19.0003 33.9021C18.4467 33.9021 17.9979 34.3509 17.9979 34.9045V36.7148C17.9979 37.2684 18.4467 37.7172 19.0003 37.7172C19.5539 37.7172 20.0027 37.2684 20.0027 36.7148V34.9045C20.0027 34.3508 19.554 33.9021 19.0003 33.9021Z" fill="#C4C4C4"/>
<path d="M37.3071 22.6898L35.5854 22.1303C35.0591 21.9594 34.4934 22.2474 34.3223 22.774C34.1512 23.3005 34.4393 23.866 34.9658 24.0371L36.6875 24.5965C36.7904 24.6299 36.8948 24.6458 36.9974 24.6458C37.42 24.6458 37.813 24.3765 37.9506 23.9528C38.1217 23.4263 37.8336 22.8609 37.3071 22.6898Z" fill="#C4C4C4"/>
</svg>
