<svg width="38" height="38" viewBox="0 0 38 38" fill="none" xmlns="http://www.w3.org/2000/svg">
<g clip-path="url(#clip0)">
<path d="M32.7302 31.2224C33.1399 31.2224 33.4724 30.8892 33.4724 30.4788C33.4724 30.068 33.1399 29.7349 32.7302 29.7349C32.3203 29.7349 31.9877 30.068 31.9877 30.4788C31.9877 30.8892 32.3203 31.2224 32.7302 31.2224Z" fill="#C4C4C4"/>
<path d="M0.102931 14.8861C0.274272 15.7308 0.565059 16.5256 0.967465 17.2483C2.27731 19.6021 2.89194 22.0532 2.89194 24.274V33.4536C2.89194 33.864 3.22418 34.1972 3.63413 34.1972H6.60317C7.01282 34.1972 7.34536 33.864 7.34536 33.4536V25.1567C7.34536 23.4804 7.73095 21.7979 8.46125 20.2888L8.52909 20.1793C12.0435 23.1103 14.8568 26.8462 16.6935 31.0301C17.5377 32.9539 19.4106 34.1972 21.4643 34.1972H27.5343C30.4651 34.1972 32.7685 34.1365 34.4834 33.8408C35.3349 33.6938 37.9259 33.2473 37.9259 31.2224C37.9259 30.0773 36.979 28.4145 35.5135 26.9865C34.5295 26.027 32.4571 24.3559 29.6383 23.9405C29.4191 23.9082 29.1973 23.9756 29.0329 24.1241C28.2971 24.7896 26.8551 25.2727 25.6047 25.2727C23.8272 25.2727 21.945 24.256 21.2269 22.9078C21.2127 22.8814 21.197 22.8558 21.1799 22.8311L16.2252 15.7483C13.1588 11.3651 9.498 7.43575 5.34493 4.06962C5.07415 3.85001 4.68769 3.84856 4.41545 4.06614C3.25694 4.99133 2.29036 6.09807 1.54237 7.35558C0.0997417 9.782 -0.364706 12.5489 0.0982921 14.8637C0.0997417 14.8713 0.101191 14.8788 0.102931 14.8861ZM5.86069 25.1567V32.7096H4.37632V24.274C4.37632 24.0503 4.36907 23.8092 4.35515 23.5582C4.12931 19.4816 2.3611 16.7899 2.02885 16.057C3.911 16.9317 5.69631 18.0015 7.35725 19.2509C6.55591 20.5505 5.86069 22.8306 5.86069 25.1567ZM2.81772 8.11694C3.3732 7.18303 4.06697 6.34324 4.88483 5.61413C8.7358 8.80568 12.1397 12.4998 15.0099 16.602L19.9397 23.6497C20.9265 25.4548 23.2998 26.7602 25.6047 26.7602C27.0664 26.7602 28.7039 26.2388 29.7383 25.4655C31.9852 25.894 33.6609 27.2555 34.4785 28.0526C35.7671 29.3086 36.4412 30.5978 36.4412 31.2224C36.4412 31.86 35.2398 32.201 34.2314 32.375C32.6204 32.6527 30.3889 32.7096 27.5343 32.7096H21.4643C19.9991 32.7096 18.6597 31.8155 18.0523 30.4314C14.8383 23.1097 8.89816 17.2768 1.48874 14.195C1.2194 12.365 1.62529 10.1227 2.81772 8.11694Z" fill="#C4C4C4"/>
<path d="M21.4481 31.2224H29.7612C30.1711 31.2224 30.5034 30.8892 30.5034 30.4788C30.5034 30.068 30.1711 29.7349 29.7612 29.7349H21.4481C21.0381 29.7349 20.7056 30.068 20.7056 30.4788C20.7056 30.8892 21.0381 31.2224 21.4481 31.2224Z" fill="#C4C4C4"/>
</g>
<defs>
<clipPath id="clip0">
<rect width="38" height="38" fill="white"/>
</clipPath>
</defs>
</svg>
