<svg width="38" height="38" viewBox="0 0 38 38" fill="none" xmlns="http://www.w3.org/2000/svg">
<path d="M26.9975 20.4791H21.8341C20.4209 20.4791 19.2717 21.6283 19.2717 23.0414V27.0014C19.2717 28.4146 20.4209 29.5637 21.8341 29.5637H26.9975C28.4107 29.5637 29.5598 28.4146 29.5598 27.0014V23.0414C29.5598 21.6283 28.4107 20.4791 26.9975 20.4791ZM27.6963 27.0014C27.6963 27.3896 27.378 27.7002 26.9975 27.7002H21.8341C21.4458 27.7002 21.1352 27.3819 21.1352 27.0014V23.0414C21.1352 22.6532 21.4536 22.3426 21.8341 22.3426H26.9975C27.3858 22.3426 27.6963 22.661 27.6963 23.0414V27.0014Z" fill="#C4C4C4"/>
<path d="M38 13.2813C38 13.1183 37.9612 12.963 37.8758 12.8232L32.2231 2.88453C32.0601 2.59724 31.7495 2.41089 31.4156 2.41089H6.57662C6.24275 2.41089 5.93216 2.58947 5.76911 2.88453L0.124234 12.8232C0.0465877 12.963 0 13.1183 0 13.2813C0 15.5098 1.34328 17.4199 3.26114 18.2662V34.6573C3.26114 35.1698 3.68043 35.5891 4.19289 35.5891H9.34083C9.34859 35.5891 9.35635 35.5891 9.36412 35.5891H16.5852C16.593 35.5891 16.6007 35.5891 16.6085 35.5891H33.7993C34.3118 35.5891 34.7311 35.1698 34.7311 34.6573V18.3827C34.7311 18.3439 34.7311 18.3128 34.7233 18.2818C36.649 17.4354 38 15.5176 38 13.2813ZM7.12015 4.28216H30.8721L35.2902 12.0545H2.70985L7.12015 4.28216ZM27.0441 13.9103C26.7491 15.5874 25.2816 16.8608 23.519 16.8608C21.7564 16.8608 20.2889 15.5874 19.9939 13.9103H27.0441ZM18.0139 13.9103C17.7188 15.5874 16.2513 16.8608 14.4888 16.8608C12.7262 16.8608 11.2587 15.5874 10.9559 13.9103H18.0139ZM1.92562 13.9103H8.98365C8.6886 15.5874 7.21332 16.8608 5.45076 16.8608C3.68819 16.8686 2.22068 15.5874 1.92562 13.9103ZM15.6535 33.7256H10.2959V23.6704C10.2959 22.9405 10.886 22.3426 11.6236 22.3426H14.3335C15.0633 22.3426 15.6612 22.9328 15.6612 23.6704V33.7256H15.6535ZM32.8676 33.7256H17.517V23.6704C17.517 21.9156 16.0883 20.4791 14.3257 20.4791H11.6159C9.86106 20.4791 8.4246 21.9078 8.4246 23.6704V33.7333H5.12464V18.7243C5.23335 18.7321 5.34205 18.7321 5.45076 18.7321C7.32979 18.7321 8.99142 17.7771 9.96976 16.3251C10.9481 17.7771 12.6097 18.7321 14.4888 18.7321C16.3678 18.7321 18.0217 17.7771 19.0078 16.3251C19.9861 17.7771 21.6477 18.7321 23.519 18.7321C25.398 18.7321 27.0519 17.7771 28.0302 16.3251C29.0086 17.7771 30.6702 18.7321 32.5492 18.7321C32.658 18.7321 32.7589 18.7243 32.8676 18.7243V33.7256ZM32.5492 16.8686C30.7867 16.8686 29.3192 15.5952 29.0241 13.918H36.0821C35.7793 15.5874 34.3118 16.8686 32.5492 16.8686Z" fill="#C4C4C4"/>
</svg>
